<svg xmlns="http://www.w3.org/2000/svg" width="480" height="160" viewBox="0 0 480 160" fill="none" role="img" aria-labelledby="title desc">
  <title id="title">mcpd</title>
  <desc id="desc">The mcpd hub-and-spoke symbol beside a lowercase geometric wordmark. For light backgrounds.</desc>
  <!-- Hub geometry matches web/public/favicon.svg; wordmark uses paths, not fonts. -->
  <g transform="translate(0 16) scale(4)" color="#357d7b"><g stroke="currentColor" stroke-width="2.5" stroke-linecap="round">
    <path d="M16 16 7 7M16 16 25 10M16 16 16 26"/>
  </g>
  <g fill="currentColor">
    <circle cx="16" cy="16" r="5"/>
    <circle cx="7" cy="7" r="3"/>
    <circle cx="25" cy="10" r="3"/>
    <circle cx="16" cy="26" r="3"/>
  </g></g>
  <g transform="translate(180 44)" color="#2e3440"><g fill="none" stroke="currentColor" stroke-width="12" stroke-linecap="round" stroke-linejoin="round">
    <path d="M0 76V14M0 28C0 4 34 4 34 28V76M34 28C34 4 68 4 68 28V76"/>
    <path d="M134 22C124 8 102 8 94 26C85 47 91 70 108 76C118 80 128 76 135 68"/>
    <path d="M160 105V14M161 28C173 5 205 8 205 44C205 80 173 85 161 62"/>
    <path d="M266 -8V76M265 28C253 5 221 8 221 44C221 80 253 85 265 62"/>
  </g></g>
</svg>
